<?xml version="1.0" standalone="no"?>
<!DOCTYPE svg PUBLIC "-//W3C//DTD SVG 20010904//EN"
 "http://www.w3.org/TR/2001/REC-SVG-20010904/DTD/svg10.dtd">
<svg version="1.0" xmlns="http://www.w3.org/2000/svg"
 width="931.000000pt" height="931.000000pt" viewBox="0 0 931.000000 931.000000"
 preserveAspectRatio="xMidYMid meet">
<metadata>
Created by potrace 1.11, written by Peter Selinger 2001-2013
</metadata>
<g transform="translate(0.000000,931.000000) scale(0.100000,-0.100000)"
fill="#000000" stroke="none">
<path d="M4300 9274 c-19 -2 -84 -9 -145 -14 -795 -77 -1628 -402 -2275 -889
-255 -192 -599 -518 -783 -741 -587 -714 -928 -1506 -1044 -2430 -26 -210 -26
-860 0 -1070 105 -833 407 -1593 886 -2230 192 -255 518 -599 741 -783 714
-587 1506 -928 2430 -1044 210 -26 860 -26 1070 0 833 105 1593 407 2230 886
255 192 599 518 783 741 587 714 928 1506 1044 2430 26 210 26 860 0 1070
-105 833 -407 1593 -886 2230 -256 340 -601 685 -941 941 -503 379 -1131 667
-1750 803 -359 79 -534 98 -965 101 -198 2 -376 1 -395 -1z"/>
</g>
</svg>
